<svg width="192" height="192" viewBox="0 0 192 192" fill="none" xmlns="http://www.w3.org/2000/svg">
<g clip-path="url(#clip0_242_156)">
<mask id="mask0_242_156" style="mask-type:alpha" maskUnits="userSpaceOnUse" x="0" y="0" width="192" height="192">
<path d="M154.5 0H37.5C16.7893 0 0 16.7893 0 37.5V154.5C0 175.211 16.7893 192 37.5 192H154.5C175.211 192 192 175.211 192 154.5V37.5C192 16.7893 175.211 0 154.5 0Z" fill="#008C8D"/>
</mask>
<g mask="url(#mask0_242_156)">
<path d="M-41.625 -50.625H250.875V267H-41.625V-50.625Z" fill="#008C8D"/>
<path d="M58.6875 298.875C135.213 298.875 197.25 236.419 197.25 159.375C197.25 82.3313 135.213 19.875 58.6875 19.875C-17.8385 19.875 -79.875 82.3313 -79.875 159.375C-79.875 236.419 -17.8385 298.875 58.6875 298.875Z" fill="#008C8D"/>
<path d="M162.562 151.875C239.088 151.875 301.125 89.4187 301.125 12.375C301.125 -64.6687 239.088 -127.125 162.562 -127.125C86.0365 -127.125 24 -64.6687 24 12.375C24 89.4187 86.0365 151.875 162.562 151.875Z" fill="#008C8D"/>
</g>
<path d="M132.6 70.5V102.375C132.6 109.325 130.875 114.575 127.425 118.125C124.024 121.675 119.2 123.45 112.95 123.45C108.799 123.45 105.25 122.65 102.3 121.05C99.3997 119.45 97.2495 117.175 95.8496 114.225C94.3995 117.225 92.2245 119.525 89.3246 121.125C86.4247 122.675 82.9245 123.45 78.8246 123.45C72.5246 123.45 67.6496 121.675 64.1996 118.125C60.7995 114.575 59.0996 109.325 59.0996 102.375V70.5H64.6496V102.15C64.6496 113.05 69.3746 118.5 78.8246 118.5C83.3745 118.5 86.8995 117.175 89.3996 114.525C91.8997 111.825 93.1496 107.7 93.1496 102.15V70.5H98.6246V102.15C98.6246 107.75 99.8497 111.875 102.3 114.525C104.8 117.175 108.349 118.5 112.95 118.5C117.499 118.5 121 117.175 123.45 114.525C125.899 111.825 127.125 107.7 127.125 102.15V70.5H132.6Z" fill="white"/>
<path d="M83.475 157.95C80.475 157.95 77.7 157.3 75.15 156C72.6499 154.7 70.6001 152.85 69 150.45L72.15 146.7C73.6001 148.8 75.2749 150.4 77.175 151.5C79.0751 152.6 81.15 153.15 83.4 153.15C89.9501 153.15 93.225 149.3 93.225 141.6V102.3H74.025V97.5H98.7V141.375C98.7 146.875 97.3999 151 94.8 153.75C92.25 156.55 88.4749 157.95 83.475 157.95Z" fill="white"/>
</g>
<defs>
<clipPath id="clip0_242_156">
<rect width="192" height="192" fill="white"/>
</clipPath>
</defs>
</svg>
